<?xml version="1.0" encoding="UTF-8" standalone="no"?>
<svg
   xmlns:dc="http://purl.org/dc/elements/1.1/"
   xmlns:cc="http://creativecommons.org/ns#"
   xmlns:rdf="http://www.w3.org/1999/02/22-rdf-syntax-ns#"
   xmlns:svg="http://www.w3.org/2000/svg"
   xmlns="http://www.w3.org/2000/svg"
   xmlns:sodipodi="http://sodipodi.sourceforge.net/DTD/sodipodi-0.dtd"
   xmlns:inkscape="http://www.inkscape.org/namespaces/inkscape"
   height="16"
   width="20.575312"
   inkscape:version="1.0 (4035a4fb49, 2020-05-01)"
   sodipodi:docname="home-solid.svg"
   id="svg22"
   version="1.1"
   viewBox="0 0 20.575312 16"
   role="img"
   class="svg-inline--fa fa-home fa-w-18"
   data-icon="home"
   data-prefix="fas"
   focusable="false"
   aria-hidden="true">
  <metadata
     id="metadata28">
    <rdf:RDF>
      <cc:Work
         rdf:about="">
        <dc:format>image/svg+xml</dc:format>
        <dc:type
           rdf:resource="http://purl.org/dc/dcmitype/StillImage" />
      </cc:Work>
    </rdf:RDF>
  </metadata>
  <defs
     id="defs26" />
  <sodipodi:namedview
     inkscape:current-layer="svg22"
     inkscape:window-maximized="1"
     inkscape:window-y="-11"
     inkscape:window-x="2149"
     inkscape:cy="53.984518"
     inkscape:cx="221.08855"
     inkscape:zoom="1.9648438"
     showgrid="false"
     id="namedview24"
     inkscape:window-height="986"
     inkscape:window-width="1920"
     inkscape:pageshadow="2"
     inkscape:pageopacity="0"
     guidetolerance="10"
     gridtolerance="10"
     objecttolerance="10"
     borderopacity="1"
     bordercolor="#666666"
     pagecolor="#ffffff" />
  <path
     style="stroke-width:0.0357182"
     id="path20"
     d="M 10.014867,4.1508206 3.4294897,9.57464 v 5.853868 A 0.57149235,0.57149235 0 0 0 4.0009821,16 L 8.0035719,15.98964 A 0.57149235,0.57149235 0 0 0 8.5722067,15.418148 V 11.999553 A 0.57149235,0.57149235 0 0 1 9.1436984,11.42806 h 2.2859696 a 0.57149235,0.57149235 0 0 1 0.571493,0.571493 v 3.416095 a 0.57149235,0.57149235 0 0 0 0.571492,0.573279 l 4.001161,0.01107 a 0.57149235,0.57149235 0 0 0 0.571492,-0.571492 V 9.570711 L 10.561357,4.1508206 a 0.43540573,0.43540573 0 0 0 -0.54649,0 z M 20.4171,7.837303 17.431052,5.3759572 V 0.42861919 A 0.42861928,0.42861928 0 0 0 17.002433,0 H 15.002209 A 0.42861928,0.42861928 0 0 0 14.57359,0.42861919 V 3.0221229 L 11.375734,0.39111514 a 1.7144771,1.7144771 0 0 0 -2.1788146,0 L 0.15555274,7.837303 a 0.42861928,0.42861928 0 0 0 -0.057149,0.6036394 L 1.0092197,9.548209 a 0.42861928,0.42861928 0 0 0 0.603996,0.05822 L 10.014867,2.6863714 a 0.43540573,0.43540573 0 0 1 0.54649,0 l 8.402009,6.9200576 a 0.42861928,0.42861928 0 0 0 0.603638,-0.05715 l 0.910817,-1.1072651 a 0.42861928,0.42861928 0 0 0 -0.06072,-0.6047112 z"
     fill="currentColor" />
</svg>
