<svg xmlns="http://www.w3.org/2000/svg" width="16" height="12" viewBox="0 0 16 12">
  <path id="Path_14" data-name="Path 14" d="M15.688-8.031q-1.125.875-4.812,3.531l-.312.25a8.726,8.726,0,0,1-1.187.813A2.774,2.774,0,0,1,8-3a2.927,2.927,0,0,1-1.375-.406,12.431,12.431,0,0,1-1.187-.812L5.125-4.5Q1.344-7.25.313-8.031a.2.2,0,0,0-.2-.016A.171.171,0,0,0,0-7.875V-1.5A1.447,1.447,0,0,0,.438-.437,1.447,1.447,0,0,0,1.5,0h13a1.447,1.447,0,0,0,1.063-.437A1.447,1.447,0,0,0,16-1.5V-7.875a.2.2,0,0,0-.109-.187A.154.154,0,0,0,15.688-8.031ZM8-4a2,2,0,0,1-1-.375,7.447,7.447,0,0,1-.969-.687l-.312-.219Q1.875-8.094.5-9.156L.281-9.312A.712.712,0,0,1,0-9.906V-10.5a1.447,1.447,0,0,1,.438-1.062A1.447,1.447,0,0,1,1.5-12h13a1.447,1.447,0,0,1,1.063.438A1.447,1.447,0,0,1,16-10.5v.594a.712.712,0,0,1-.281.594l-.156.125q-1.344,1.063-5.281,3.906l-.312.219A7.447,7.447,0,0,1,9-4.375,2,2,0,0,1,8-4Z" transform="translate(0 12)" fill="#505050"/>
</svg>
