<svg xmlns="http://www.w3.org/2000/svg" width="16" height="16" viewBox="0 0 16 16">
  <path id="Path_18" data-name="Path 18" d="M8-14a4.891,4.891,0,0,0-2.5.672A4.964,4.964,0,0,0,3.672-11.5,4.891,4.891,0,0,0,3-9a4.891,4.891,0,0,0,.672,2.5A4.964,4.964,0,0,0,5.5-4.672,4.891,4.891,0,0,0,8-4a4.891,4.891,0,0,0,2.5-.672A4.964,4.964,0,0,0,12.328-6.5,4.891,4.891,0,0,0,13-9a4.891,4.891,0,0,0-.672-2.5A4.964,4.964,0,0,0,10.5-13.328,4.891,4.891,0,0,0,8-14ZM13.719-3.562A2.945,2.945,0,0,1,15.359-2.5,2.9,2.9,0,0,1,16-.656V.5a1.447,1.447,0,0,1-.437,1.063A1.447,1.447,0,0,1,14.5,2H1.5A1.447,1.447,0,0,1,.438,1.563,1.447,1.447,0,0,1,0,.5V-.656A2.9,2.9,0,0,1,.641-2.5,2.945,2.945,0,0,1,2.281-3.562L4.5-4.125A5.866,5.866,0,0,0,7.813-3,5.858,5.858,0,0,0,11.5-4.125Z" transform="translate(0 14)" fill="#505050"/>
</svg>
