<svg xmlns="http://www.w3.org/2000/svg" width="11.025" height="16" viewBox="0 0 11.025 16">
  <path id="Path_15" data-name="Path 15" d="M6.313-14a5.712,5.712,0,0,1,2.609.641,5.668,5.668,0,0,1,2.047,1.7,4.113,4.113,0,0,1,.844,2.469,3.647,3.647,0,0,1-.437,1.813,4.236,4.236,0,0,1-1.031,1.188,11.7,11.7,0,0,1-1.219.781,6.522,6.522,0,0,0-.875.563.872.872,0,0,0-.375.656V-4a.723.723,0,0,1-.219.531.723.723,0,0,1-.531.219H4.875a.723.723,0,0,1-.531-.219A.723.723,0,0,1,4.125-4v-.312a3.01,3.01,0,0,1,.813-2.125A7.884,7.884,0,0,1,6.625-7.594l.063-.031a5.618,5.618,0,0,0,1.125-.75,1.127,1.127,0,0,0,.406-.844A1.292,1.292,0,0,0,7.5-10.344a2.538,2.538,0,0,0-1.437-.437,2.484,2.484,0,0,0-1.437.406A6.194,6.194,0,0,0,3.469-9.25a.729.729,0,0,1-.484.3.7.7,0,0,1-.547-.141L1.094-10.125a.729.729,0,0,1-.3-.484.7.7,0,0,1,.141-.547A6.979,6.979,0,0,1,3.156-13.25,6.372,6.372,0,0,1,6.313-14ZM6-2.344A2.057,2.057,0,0,1,7.531-1.7,2.116,2.116,0,0,1,8.156-.172a2.116,2.116,0,0,1-.625,1.531A2.057,2.057,0,0,1,6,2a2.057,2.057,0,0,1-1.531-.641A2.116,2.116,0,0,1,3.844-.172,2.116,2.116,0,0,1,4.469-1.7,2.057,2.057,0,0,1,6-2.344Z" transform="translate(-0.787 14)" fill="#505050"/>
</svg>
