<svg xmlns="http://www.w3.org/2000/svg" width="20" height="16" viewBox="0 0 20 16">
  <path id="Path_16" data-name="Path 16" d="M19.25-4a.723.723,0,0,1,.531.219A.723.723,0,0,1,20-3.25v4.5a.723.723,0,0,1-.219.531A.723.723,0,0,1,19.25,2h-4.5a.723.723,0,0,1-.531-.219A.723.723,0,0,1,14,1.25v-4.5a.723.723,0,0,1,.219-.531A.723.723,0,0,1,14.75-4h1.5V-5.25h-5.5V-4h1.5a.723.723,0,0,1,.531.219A.723.723,0,0,1,13-3.25v4.5a.723.723,0,0,1-.219.531A.723.723,0,0,1,12.25,2H7.75a.723.723,0,0,1-.531-.219A.723.723,0,0,1,7,1.25v-4.5a.723.723,0,0,1,.219-.531A.723.723,0,0,1,7.75-4h1.5V-5.25H3.75V-4h1.5a.723.723,0,0,1,.531.219A.723.723,0,0,1,6-3.25v4.5a.723.723,0,0,1-.219.531A.723.723,0,0,1,5.25,2H.75a.723.723,0,0,1-.531-.219A.723.723,0,0,1,0,1.25v-4.5a.723.723,0,0,1,.219-.531A.723.723,0,0,1,.75-4h1.5V-5.5a1.209,1.209,0,0,1,.359-.891A1.209,1.209,0,0,1,3.5-6.75H9.25V-8H7.75a.723.723,0,0,1-.531-.219A.723.723,0,0,1,7-8.75v-4.5a.723.723,0,0,1,.219-.531A.723.723,0,0,1,7.75-14h4.5a.723.723,0,0,1,.531.219A.723.723,0,0,1,13-13.25v4.5a.723.723,0,0,1-.219.531A.723.723,0,0,1,12.25-8h-1.5v1.25H16.5a1.209,1.209,0,0,1,.891.359,1.209,1.209,0,0,1,.359.891V-4Z" transform="translate(0 14)" fill="#505050"/>
</svg>
